# Blender v2.69 (sub 0) OBJ File: ''
# www.blender.org
o Cube
v 1.000000 -1.000000 -1.000000
v 1.000000 -1.000000 1.000000
v -1.000000 -1.000000 1.000000
v -1.000000 -1.000000 -1.000000
v 1.000000 1.000000 -0.999999
v 0.999999 1.000000 1.000001
v -1.000000 1.000000 1.000000
v -1.000000 1.000000 -1.000000
vt 0.499999 0.500000
vt 0.499999 0.749956
vt 0.250042 0.500001
vt 0.499998 0.250043
vt 0.250041 0.250044
vt 0.499996 0.000087
vt 0.749956 0.749956
vt 0.749956 0.999913
vt 0.500000 0.999913
vt 0.250043 0.749957
vt 0.250043 0.999913
vt 0.000087 0.749957
vt 0.250040 0.000088
vt 0.000087 0.999913
vn 0.000000 -1.000000 0.000000
vn 0.000000 1.000000 0.000000
vn 1.000000 -0.000000 0.000000
vn 0.000000 -0.000000 1.000000
vn -1.000000 -0.000000 -0.000000
vn 0.000000 0.000000 -1.000000
vn 1.000000 0.000000 0.000001
s off
f 1/1/1 2/2/1 4/3/1
f 5/4/2 8/5/2 6/6/2
f 1/7/3 5/8/3 2/2/3
f 2/2/4 6/9/4 3/10/4
f 3/10/5 7/11/5 4/12/5
f 5/4/6 1/1/6 8/5/6
f 2/2/1 3/10/1 4/3/1
f 8/5/2 7/13/2 6/6/2
f 5/8/7 6/9/7 2/2/7
f 6/9/4 7/11/4 3/10/4
f 7/11/5 8/14/5 4/12/5
f 1/1/6 4/3/6 8/5/6
